<svg width="50" height="50" viewBox="0 0 50 50" fill="none" xmlns="http://www.w3.org/2000/svg">
<path d="M48.193 5.53764C33.2887 6.93966 28.5711 4.98555 19.2225 5.00008C12.4675 5.00008 7.72819 10.5573 7.90158 17.0153C8.19779 27.7302 10.5963 33.6507 8.88412 45.3826C21.9172 43.2832 28.73 46.4069 37.6812 45.9492C44.1039 45.6151 49.255 40.6463 48.9949 33.9122C48.5903 23.2045 46.4807 17.2623 48.193 5.53038V5.53764Z" fill="#8DC63F"/>
<path d="M46.5456 32.9025C47.1814 23.4879 45.0429 17.8653 46.8274 6.75085C34.4372 8.12382 30.7021 7.2303 20.7756 7.27389C17.8496 7.28842 15.2199 8.54515 13.356 10.5356L43.7497 40.0434C45.498 38.1764 46.3433 35.9608 46.5456 32.9098V32.9025Z" fill="#108FCE"/>
<path d="M13.3562 10.5283C11.6223 12.388 10.5603 14.8869 10.5747 17.6401C10.6325 27.0765 12.0774 32.6773 10.293 43.7918C21.361 41.8813 26.9528 43.3123 36.352 43.2688C39.2707 43.247 41.8932 42.0048 43.7499 40.0289L13.3562 10.5283Z" fill="#A87D50"/>
<path d="M42.0593 42.0048C46.1846 38.8666 45.4838 35.2199 44.9275 31.0065C44.4651 27.1637 42.1388 24.5631 38.895 21.0253C30.9841 12.4098 18.4856 6.7218 6.11714 9.6566C3.28511 10.3322 1.20443 10.5792 1.03827 10.8189C0.958798 10.9424 1.00937 10.9497 1.13219 10.9497H1.17553C5.4597 11.4073 10.972 13.0055 16.9684 24.7737C21.8739 34.4135 25.3706 39.9853 29.6981 42.3898C33.5055 44.511 39.4151 44.1695 42.0666 42.0048H42.0593Z" fill="white"/>
<path d="M2.65614 9.50396C8.72478 9.67104 14.1143 15.0321 19.1137 24.3668C24.0697 33.6289 26.1721 37.9439 31.6772 41.6632C34.0252 43.2469 36.5827 43.4648 38.8801 43.1888C41.1847 42.9054 42.7958 41.5252 42.7958 41.4598C42.6513 39.9561 41.3292 36.1641 40.39 34.2028C36.3587 25.8488 30.3696 19.4852 22.1263 14.4946C17.7844 11.8649 20.6959 13.1434 24.0914 14.9014C36.431 21.294 41.4304 31.1445 43.3666 36.6581C43.735 37.6969 44.3058 39.6946 44.2985 39.6946C44.3852 39.5348 47.0655 36.9051 46.4731 31.3479C46.0324 27.1999 43.2799 23.1973 39.9999 19.8193C31.3521 10.9205 14.2732 5.48678 2.44663 9.45311C2.33104 9.4967 2.43218 9.4967 2.65614 9.50396Z" fill="url(#paint0_linear_149_23)"/>
<path d="M14.418 41.4963V39.9272H13.197V41.4963H12.6118V37.8932H13.197V39.2952H14.418V37.8932H15.0031V41.4963H14.418Z" fill="white"/>
<path d="M17.7989 38.3363C18.059 38.685 18.1818 39.1353 18.1818 39.6874C18.1818 40.2395 18.0518 40.6972 17.7989 41.0531C17.5389 41.4091 17.1993 41.5834 16.773 41.5834C16.3468 41.5834 16 41.4018 15.7472 41.0531C15.4943 40.6972 15.3643 40.2468 15.3643 39.6874C15.3643 39.1281 15.4943 38.685 15.7472 38.3363C16 37.9876 16.3468 37.8132 16.773 37.8132C17.1993 37.8132 17.5389 37.9876 17.7989 38.3363ZM17.3655 40.5955C17.51 40.3558 17.5822 40.0507 17.5822 39.6874C17.5822 39.3242 17.51 39.0264 17.3655 38.7939C17.221 38.5615 17.0187 38.4452 16.773 38.4452C16.5274 38.4452 16.3251 38.5615 16.1879 38.7939C16.0506 39.0264 15.9783 39.3242 15.9783 39.6874C15.9783 40.0507 16.0506 40.363 16.1879 40.5955C16.3251 40.8352 16.5202 40.9514 16.773 40.9514C17.0259 40.9514 17.221 40.8352 17.3655 40.5955Z" fill="white"/>
<path d="M20.5446 38.2418C20.7541 38.467 20.8552 38.7358 20.8552 39.0482C20.8552 39.3605 20.7541 39.6366 20.5446 39.869C20.335 40.1015 20.0894 40.2177 19.8004 40.2177H19.1141V41.4962H18.5361V37.9004H19.8004C20.0894 37.9004 20.3423 38.0166 20.5446 38.2418ZM20.0822 39.4622C20.1978 39.3823 20.2484 39.2443 20.2484 39.0482C20.2484 38.852 20.1906 38.7285 20.0822 38.6559C19.9666 38.5832 19.851 38.5397 19.721 38.5397H19.1069V39.5857H19.721C19.851 39.5857 19.9666 39.5494 20.0822 39.4695V39.4622Z" fill="white"/>
<path d="M21.202 41.4818V37.9077H23.3622V38.5397H21.78V39.3461H23.2899V39.9708H21.78V40.857H23.3983V41.489H21.1948L21.202 41.4818Z" fill="white"/>
<defs>
<linearGradient id="paint0_linear_149_23" x1="10.0685" y1="9.73642" x2="44.8169" y2="37.6629" gradientUnits="userSpaceOnUse">
<stop stop-color="#B2D237"/>
<stop offset="0.11" stop-color="#ACCE37"/>
<stop offset="0.25" stop-color="#9CC53A"/>
<stop offset="0.4" stop-color="#82B73F"/>
<stop offset="0.52" stop-color="#68A844"/>
<stop offset="1" stop-color="#068242"/>
</linearGradient>
</defs>
</svg>
