<svg width="244" height="244" viewBox="0 0 244 244" fill="none" xmlns="http://www.w3.org/2000/svg">
<g clip-path="url(#clip0_32_1878)">
<path d="M132.57 14.43C132.75 14.53 132.76 14.77 132.6 15.13C132.12 16.13 131.22 16.99 129.9 17.7C128.58 18.41 127.15 18.74 125.6 18.7C123.12 18.63 121 17.73 119.26 15.98C117.52 14.23 116.68 11.98 116.75 9.24001C116.79 7.67001 117.08 6.28001 117.61 5.06001C118.14 3.84001 118.85 2.87001 119.74 2.14001C120.63 1.41001 121.63 0.870014 122.75 0.510014C123.87 0.150014 125.07 -0.0199861 126.35 0.0200139C127.87 0.0600139 129.1 0.420014 130.05 1.10001C130.3 1.06001 130.76 1.00001 131.43 0.940014C131.92 0.890014 132.19 1.05001 132.24 1.44001L132.83 5.43001C132.92 5.95001 132.84 6.24001 132.61 6.30001C132.36 6.36001 132.15 6.20001 131.97 5.83001C131.72 5.24001 131.45 4.70001 131.16 4.21001C130.7 3.40001 130.08 2.72001 129.3 2.18001C128.52 1.64001 127.66 1.36001 126.71 1.34001C125.01 1.29001 123.62 1.98001 122.55 3.39001C121.48 4.80001 120.91 6.66001 120.85 8.96001C120.79 11.24 121.33 13.06 122.47 14.41C123.61 15.76 125.02 16.45 126.7 16.5C128.5 16.55 130.2 15.97 131.8 14.76C132.19 14.47 132.44 14.37 132.56 14.46L132.57 14.43Z" fill="black"/>
<path d="M151.56 21.8901C151.52 22.1001 151.37 22.1801 151.13 22.1301L144.75 20.7801C144.51 20.7301 144.41 20.6001 144.45 20.3801C144.49 20.2001 144.63 20.0701 144.89 19.9901L146.14 19.5101L145.66 15.1201L140.67 14.0701L138.34 17.8701L139.78 18.9101C139.99 19.0401 140.07 19.2101 140.03 19.4201C139.98 19.6501 139.84 19.7401 139.59 19.6901L134.62 18.6401C134.37 18.5901 134.28 18.4501 134.33 18.2201C134.37 18.0101 134.52 17.8901 134.77 17.8501L136.73 17.4201L145.05 4.25006C145.31 3.83006 145.58 3.43006 145.86 3.07006C146.21 2.63006 146.57 2.45006 146.94 2.53006C147.32 2.61006 147.57 2.92006 147.71 3.46006C147.85 4.09006 147.95 4.56006 148 4.88006L150.27 20.2801L151.32 21.3401C151.52 21.5201 151.6 21.7001 151.57 21.8801L151.56 21.8901ZM141.37 12.9001L145.5 13.7701L144.79 7.33006L141.37 12.8901V12.9001Z" fill="black"/>
<path d="M172.389 30.0201C172.559 30.2101 172.609 30.3901 172.529 30.5701C172.439 30.7801 172.279 30.8401 172.049 30.7401L166.509 28.3201C166.279 28.2201 166.209 28.0601 166.309 27.8501C166.389 27.6701 166.559 27.5801 166.809 27.5801L168.019 27.5101L173.329 15.3701L165.049 24.0001C164.199 24.9001 163.579 25.5201 163.199 25.8601C162.689 26.3101 162.289 26.4701 162.009 26.3501C161.699 26.2201 161.549 25.8101 161.529 25.1301C161.519 24.6201 161.549 23.7401 161.639 22.5001L162.359 10.5601L157.139 22.5001L158.409 23.9001C158.589 24.0701 158.639 24.2501 158.549 24.4501C158.459 24.6601 158.299 24.7201 158.069 24.6201L153.629 22.6801C153.399 22.5801 153.329 22.4201 153.429 22.2101C153.519 22.0101 153.679 21.9201 153.929 21.9401L155.819 21.9201L161.819 8.20006L160.919 7.21006C160.739 7.04006 160.689 6.86006 160.779 6.66006C160.869 6.45006 161.029 6.39006 161.259 6.49006L166.459 8.76006L165.689 21.3301L174.429 12.2501L179.239 14.3501C179.469 14.4501 179.539 14.6101 179.439 14.8201C179.359 15.0001 179.189 15.0901 178.939 15.0901L177.729 15.1601L171.639 29.0901L172.399 30.0201H172.389Z" fill="black"/>
<path d="M188.65 21.17C190.17 21.37 191.57 21.93 192.86 22.86C194.15 23.79 195.12 24.94 195.79 26.31C196.46 27.68 196.72 29.21 196.56 30.89C196.4 32.57 195.77 34.16 194.67 35.69C193.57 37.22 192.25 38.32 190.71 39C189.17 39.68 187.64 39.92 186.13 39.72C184.61 39.52 183.21 38.96 181.92 38.03C180.63 37.1 179.66 35.95 178.99 34.58C178.32 33.2 178.07 31.68 178.23 30.01C178.39 28.34 179.03 26.74 180.13 25.22C181.23 23.69 182.55 22.59 184.08 21.9C185.61 21.21 187.14 20.97 188.66 21.17H188.65ZM181.04 33.17C180.92 34.81 181.47 36.07 182.7 36.96C183.93 37.85 185.31 37.97 186.83 37.34C188.35 36.71 189.86 35.36 191.34 33.3C192.83 31.23 193.63 29.37 193.76 27.72C193.88 26.07 193.32 24.8 192.09 23.92C190.86 23.03 189.48 22.91 187.97 23.55C186.45 24.19 184.94 25.55 183.45 27.61C181.96 29.68 181.15 31.53 181.03 33.17H181.04Z" fill="black"/>
<path d="M202.301 55.71C202.141 55.86 201.981 55.85 201.801 55.67L197.261 50.98C197.091 50.8 197.081 50.64 197.231 50.48C197.361 50.35 197.561 50.33 197.811 50.4L199.111 50.7L201.171 46.79L197.631 43.12L193.571 44.96L194.181 46.63C194.281 46.86 194.261 47.04 194.101 47.19C193.931 47.35 193.761 47.34 193.591 47.16L190.061 43.51C189.891 43.33 189.881 43.16 190.061 43C190.221 42.85 190.401 42.83 190.631 42.94L192.491 43.68L206.761 37.43C207.211 37.23 207.661 37.05 208.091 36.9C208.621 36.73 209.021 36.79 209.291 37.06C209.561 37.34 209.601 37.74 209.411 38.26C209.181 38.86 208.991 39.3 208.861 39.59L202.121 53.62L202.401 55.09C202.471 55.35 202.431 55.54 202.301 55.67V55.71ZM198.901 42.55L201.841 45.59L204.851 39.86L198.901 42.55Z" fill="black"/>
<path d="M221.65 81.07C221.65 81.28 221.44 81.4 221.05 81.43C219.94 81.48 218.76 81.09 217.52 80.25C216.28 79.42 215.31 78.3 214.62 76.92C213.51 74.7 213.32 72.4 214.05 70.04C214.77 67.68 216.37 65.89 218.83 64.66C220.23 63.96 221.6 63.56 222.92 63.46C224.25 63.36 225.44 63.53 226.5 63.97C227.56 64.41 228.51 65.04 229.35 65.86C230.19 66.68 230.9 67.66 231.47 68.81C232.14 70.17 232.41 71.42 232.25 72.58C232.41 72.78 232.67 73.16 233.04 73.72C233.31 74.12 233.29 74.44 232.98 74.67L229.73 77.07C229.31 77.39 229.02 77.46 228.86 77.28C228.69 77.09 228.73 76.82 228.97 76.5C229.37 76 229.72 75.51 230.02 75.03C230.52 74.24 230.83 73.38 230.94 72.44C231.05 71.5 230.89 70.61 230.47 69.76C229.71 68.24 228.46 67.33 226.71 67.05C224.96 66.77 223.05 67.14 220.99 68.16C218.95 69.18 217.59 70.5 216.94 72.14C216.28 73.78 216.33 75.35 217.08 76.86C217.88 78.47 219.19 79.7 221.01 80.55C221.45 80.76 221.66 80.94 221.63 81.08L221.65 81.07Z" fill="black"/>
<path d="M223.92 101.33C223.71 101.39 223.57 101.3 223.5 101.06L221.7 94.79C221.63 94.55 221.7 94.4 221.91 94.34C222.09 94.29 222.27 94.36 222.46 94.55L223.47 95.43L227.13 92.95L225.73 88.05L221.28 87.76L221.03 89.52C221.01 89.77 220.9 89.92 220.69 89.98C220.47 90.04 220.32 89.96 220.25 89.72L218.85 84.84C218.78 84.6 218.85 84.45 219.08 84.38C219.29 84.32 219.46 84.39 219.61 84.59L220.91 86.12L236.44 87.32C236.93 87.35 237.41 87.41 237.86 87.48C238.41 87.58 238.74 87.82 238.84 88.19C238.95 88.56 238.79 88.93 238.38 89.31C237.89 89.73 237.52 90.03 237.26 90.23L224.71 99.44L224.26 100.87C224.2 101.13 224.08 101.29 223.9 101.34L223.92 101.33ZM227.11 88.12L228.27 92.18L233.63 88.54L227.11 88.12Z" fill="black"/>
<path d="M226.49 123.54C226.41 123.78 226.27 123.91 226.07 123.92C225.84 123.94 225.71 123.82 225.69 123.57L225.23 117.54C225.21 117.29 225.32 117.16 225.55 117.14C225.75 117.12 225.91 117.23 226.03 117.45L226.66 118.48L239.87 117.48L228.37 114.21C227.17 113.88 226.34 113.63 225.86 113.45C225.22 113.21 224.89 112.94 224.87 112.62C224.84 112.29 225.13 111.96 225.72 111.63C226.17 111.38 226.96 111 228.09 110.5L238.97 105.54L225.98 106.52L225.34 108.3C225.27 108.54 225.13 108.67 224.92 108.68C224.69 108.7 224.56 108.58 224.54 108.33L224.17 103.49C224.15 103.24 224.26 103.11 224.49 103.09C224.71 103.07 224.86 103.18 224.97 103.4L225.87 105.06L240.8 103.93L241.26 102.67C241.33 102.43 241.47 102.3 241.68 102.29C241.91 102.27 242.04 102.39 242.06 102.64L242.49 108.3L231.03 113.51L243.15 116.98L243.55 122.21C243.57 122.46 243.46 122.59 243.23 122.61C243.03 122.63 242.87 122.52 242.76 122.3L242.13 121.27L226.97 122.42L226.5 123.53L226.49 123.54Z" fill="black"/>
<path d="M241.959 133.76C242.499 135.2 242.659 136.7 242.449 138.27C242.239 139.84 241.679 141.24 240.779 142.48C239.879 143.72 238.659 144.67 237.099 145.31C235.549 145.96 233.839 146.16 231.969 145.9C230.099 145.65 228.509 145 227.189 143.97C225.869 142.93 224.939 141.7 224.399 140.26C223.859 138.82 223.699 137.32 223.909 135.75C224.119 134.18 224.679 132.78 225.579 131.54C226.479 130.3 227.699 129.36 229.249 128.72C230.799 128.08 232.509 127.89 234.369 128.14C236.239 128.39 237.829 129.03 239.159 130.06C240.479 131.09 241.409 132.32 241.949 133.76H241.959ZM227.789 132.68C226.289 133.34 225.429 134.43 225.229 135.93C225.029 137.43 225.559 138.71 226.839 139.76C228.119 140.81 230.009 141.5 232.519 141.84C235.049 142.18 237.069 142.02 238.579 141.35C240.089 140.68 240.949 139.59 241.149 138.09C241.349 136.59 240.819 135.32 239.529 134.28C238.249 133.24 236.349 132.55 233.819 132.21C231.289 131.87 229.279 132.03 227.779 132.69L227.789 132.68Z" fill="black"/>
<path d="M217.88 162.02C217.67 161.95 217.61 161.8 217.69 161.56L219.71 155.35C219.79 155.11 219.93 155.03 220.14 155.09C220.31 155.15 220.43 155.31 220.48 155.57L220.82 156.86H225.24L226.82 152L223.29 149.28L222.1 150.6C221.95 150.8 221.77 150.86 221.56 150.79C221.34 150.72 221.27 150.56 221.34 150.33L222.91 145.5C222.99 145.26 223.14 145.18 223.36 145.25C223.57 145.32 223.67 145.47 223.68 145.72L223.9 147.71L236.11 157.38C236.5 157.68 236.86 157.99 237.2 158.31C237.6 158.7 237.74 159.08 237.62 159.45C237.5 159.81 237.17 160.04 236.61 160.12C235.97 160.19 235.49 160.24 235.17 160.26L219.62 160.88L218.45 161.81C218.25 161.99 218.06 162.05 217.89 162L217.88 162.02ZM227.91 152.85L226.61 156.87L233.08 156.84L227.91 152.85Z" fill="black"/>
<path d="M208.16 186.34C207.98 186.44 207.77 186.33 207.54 186.01C206.93 185.08 206.66 183.87 206.73 182.38C206.81 180.88 207.26 179.48 208.09 178.18C209.43 176.09 211.3 174.74 213.69 174.15C216.09 173.56 218.44 174 220.76 175.48C222.08 176.32 223.13 177.29 223.9 178.37C224.67 179.45 225.14 180.56 225.3 181.7C225.47 182.83 225.42 183.97 225.15 185.12C224.88 186.26 224.4 187.38 223.71 188.46C222.89 189.74 221.95 190.61 220.88 191.07C220.79 191.31 220.6 191.73 220.31 192.34C220.11 192.78 219.82 192.93 219.47 192.78L215.74 191.23C215.25 191.04 215.04 190.82 215.11 190.59C215.19 190.34 215.43 190.24 215.84 190.28C216.47 190.37 217.08 190.42 217.65 190.43C218.58 190.45 219.48 190.27 220.34 189.88C221.2 189.49 221.89 188.9 222.4 188.1C223.32 186.67 223.44 185.13 222.79 183.48C222.13 181.83 220.83 180.39 218.9 179.15C216.98 177.92 215.14 177.45 213.4 177.73C211.66 178.01 210.33 178.86 209.43 180.28C208.46 181.8 208.08 183.55 208.29 185.55C208.34 186.03 208.29 186.3 208.16 186.36V186.34Z" fill="black"/>
<path d="M191.979 198.76C191.819 198.61 191.829 198.45 191.999 198.26L196.439 193.48C196.609 193.3 196.769 193.28 196.929 193.43C197.059 193.55 197.099 193.75 197.039 194.01L196.799 195.33L200.809 197.18L204.279 193.45L202.229 189.49L200.589 190.19C200.369 190.3 200.179 190.29 200.019 190.14C199.849 189.98 199.849 189.81 200.019 189.63L203.479 185.91C203.649 185.73 203.819 185.71 203.989 185.87C204.149 186.02 204.179 186.2 204.079 186.43L203.439 188.33L210.439 202.25C210.669 202.69 210.869 203.13 211.039 203.55C211.239 204.07 211.199 204.48 210.939 204.76C210.679 205.04 210.279 205.1 209.739 204.94C209.129 204.74 208.679 204.58 208.379 204.46L194.009 198.47L192.549 198.82C192.289 198.9 192.099 198.88 191.959 198.75L191.979 198.76ZM204.939 194.66L202.059 197.75L207.939 200.46L204.939 194.66Z" fill="black"/>
<path d="M174.32 212.46C174.07 212.51 173.89 212.46 173.77 212.3C173.63 212.11 173.67 211.94 173.87 211.8L178.79 208.28C178.99 208.13 179.16 208.16 179.3 208.35C179.42 208.51 179.41 208.7 179.28 208.92L178.72 209.99L186.42 220.77L183.25 209.24C182.91 208.05 182.69 207.2 182.6 206.69C182.47 206.02 182.54 205.6 182.79 205.41C183.06 205.22 183.49 205.29 184.08 205.63C184.53 205.88 185.26 206.36 186.28 207.07L196.16 213.81L188.59 203.21L186.74 203.58C186.5 203.65 186.32 203.59 186.19 203.42C186.05 203.23 186.09 203.06 186.29 202.92L190.24 200.1C190.44 199.95 190.61 199.98 190.75 200.17C190.87 200.35 190.87 200.54 190.73 200.74L189.78 202.37L198.48 214.56L199.8 214.3C200.04 214.23 200.22 214.29 200.35 214.46C200.49 214.65 200.45 214.82 200.25 214.96L195.63 218.26L185.24 211.15L188.55 223.32L184.28 226.37C184.08 226.52 183.91 226.49 183.77 226.3C183.65 226.14 183.66 225.95 183.79 225.73L184.34 224.66L175.51 212.29L174.32 212.47V212.46Z" fill="black"/>
<path d="M173.551 230.98C172.601 232.18 171.401 233.09 169.941 233.72C168.491 234.35 167.001 234.6 165.471 234.46C163.941 234.33 162.501 233.77 161.151 232.77C159.801 231.78 158.741 230.41 158.001 228.68C157.261 226.95 156.981 225.25 157.191 223.58C157.401 221.91 157.981 220.48 158.931 219.28C159.881 218.08 161.091 217.16 162.541 216.54C163.991 215.91 165.481 215.66 167.011 215.79C168.541 215.92 169.971 216.49 171.321 217.48C172.671 218.48 173.711 219.84 174.461 221.57C175.211 223.3 175.481 225 175.281 226.66C175.081 228.32 174.511 229.76 173.551 230.96V230.98ZM167.161 218.29C165.821 217.34 164.451 217.17 163.061 217.77C161.671 218.37 160.851 219.49 160.611 221.13C160.371 222.77 160.761 224.75 161.761 227.07C162.771 229.41 163.951 231.06 165.311 232.01C166.661 232.96 168.041 233.13 169.431 232.53C170.821 231.93 171.631 230.81 171.861 229.18C172.091 227.55 171.701 225.56 170.691 223.22C169.681 220.88 168.501 219.24 167.161 218.29Z" fill="black"/>
<path d="M136.921 224.92C136.871 224.71 136.971 224.57 137.211 224.52L143.571 223.05C143.811 222.99 143.961 223.07 144.011 223.28C144.051 223.46 143.971 223.64 143.781 223.82L142.851 224.78L145.141 228.56L150.111 227.41L150.621 222.98L148.871 222.64C148.621 222.61 148.481 222.49 148.431 222.28C148.381 222.05 148.471 221.91 148.721 221.86L153.661 220.71C153.901 220.65 154.051 220.74 154.101 220.97C154.151 221.18 154.071 221.35 153.861 221.49L152.271 222.71L150.281 238.16C150.221 238.65 150.141 239.12 150.041 239.58C149.911 240.12 149.661 240.44 149.281 240.53C148.911 240.62 148.541 240.44 148.191 240.01C147.801 239.5 147.511 239.12 147.331 238.85L138.771 225.85L137.371 225.33C137.111 225.25 136.961 225.12 136.921 224.95V224.92ZM149.961 228.78L145.841 229.73L149.201 235.26L149.961 228.77V228.78Z" fill="black"/>
<path d="M111.11 229.18C110.93 229.08 110.92 228.84 111.08 228.48C111.55 227.47 112.45 226.62 113.77 225.91C115.09 225.2 116.52 224.86 118.07 224.9C120.55 224.96 122.67 225.86 124.42 227.6C126.17 229.34 127.01 231.59 126.95 234.34C126.91 235.91 126.63 237.3 126.1 238.52C125.57 239.74 124.86 240.72 123.98 241.44C123.1 242.17 122.1 242.72 120.98 243.08C119.86 243.44 118.66 243.61 117.38 243.58C115.86 243.54 114.63 243.19 113.68 242.51C113.43 242.55 112.97 242.61 112.3 242.68C111.82 242.73 111.55 242.57 111.49 242.19L110.89 238.2C110.8 237.68 110.88 237.39 111.11 237.33C111.36 237.27 111.57 237.42 111.75 237.8C112 238.39 112.27 238.93 112.56 239.42C113.02 240.23 113.64 240.9 114.42 241.44C115.2 241.98 116.06 242.25 117.01 242.28C118.71 242.32 120.09 241.63 121.16 240.22C122.23 238.8 122.79 236.95 122.85 234.65C122.9 232.37 122.36 230.55 121.22 229.21C120.08 227.87 118.66 227.17 116.98 227.13C115.18 227.09 113.48 227.67 111.89 228.88C111.5 229.17 111.25 229.27 111.13 229.19L111.11 229.18Z" fill="black"/>
<path d="M92.0491 221.75C92.0891 221.54 92.2391 221.46 92.4791 221.51L98.8691 222.84C99.1091 222.89 99.2091 223.02 99.1691 223.24C99.1291 223.42 98.9891 223.55 98.7291 223.63L97.4791 224.11L97.9691 228.5L102.959 229.54L105.289 225.73L103.849 224.69C103.639 224.56 103.559 224.39 103.599 224.18C103.649 223.95 103.789 223.86 104.039 223.91L109.009 224.95C109.259 225 109.349 225.14 109.309 225.37C109.269 225.58 109.119 225.7 108.879 225.74L106.919 226.18L98.6291 239.37C98.3691 239.79 98.0991 240.19 97.8191 240.56C97.4691 241 97.1091 241.18 96.7391 241.1C96.3591 241.02 96.1091 240.71 95.9591 240.17C95.8191 239.54 95.7191 239.07 95.6691 238.76L93.3591 223.37L92.2991 222.31C92.0991 222.13 92.0191 221.95 92.0491 221.77V221.75ZM102.259 230.72L98.1191 229.86L98.8491 236.29L102.259 230.72Z" fill="black"/>
<path d="M71.2291 213.69C71.0591 213.51 71.0091 213.32 71.0891 213.14C71.1791 212.93 71.3391 212.87 71.5691 212.97L77.1191 215.38C77.3491 215.48 77.4191 215.64 77.3291 215.85C77.2491 216.03 77.0791 216.13 76.8291 216.12L75.6191 216.2L70.3491 228.36L78.5991 219.7C79.4491 218.8 80.0591 218.17 80.4491 217.83C80.9591 217.38 81.3491 217.21 81.6391 217.34C81.9491 217.47 82.1091 217.88 82.1191 218.56C82.1291 219.07 82.0991 219.95 82.0191 221.19L81.3391 233.13L86.5191 221.18L85.2491 219.78C85.0691 219.61 85.0191 219.43 85.1091 219.23C85.1991 219.02 85.3591 218.96 85.5891 219.06L90.0391 220.99C90.2691 221.09 90.3391 221.25 90.2491 221.46C90.1591 221.66 89.9991 221.75 89.7491 221.73L87.8591 221.75L81.8991 235.49L82.7991 236.48C82.9791 236.65 83.0291 236.83 82.9391 237.03C82.8491 237.24 82.6891 237.3 82.4591 237.2L77.2491 234.94L77.9891 222.37L69.2691 231.48L64.4491 229.39C64.2191 229.29 64.1491 229.13 64.2391 228.92C64.3191 228.74 64.4891 228.65 64.7391 228.65L65.9491 228.57L71.9991 214.63L71.2291 213.7V213.69Z" fill="black"/>
<path d="M54.9709 222.57C53.4509 222.37 52.0509 221.81 50.7609 220.89C49.4709 219.97 48.4909 218.82 47.8209 217.44C47.1509 216.06 46.8809 214.54 47.0409 212.87C47.1909 211.2 47.8209 209.59 48.9209 208.06C50.0209 206.53 51.3309 205.42 52.8709 204.74C54.4109 204.06 55.9309 203.81 57.4509 204.01C58.9709 204.21 60.3709 204.77 61.6609 205.69C62.9509 206.61 63.9309 207.76 64.6009 209.14C65.2709 210.52 65.5309 212.04 65.3709 213.71C65.2109 215.38 64.5809 216.98 63.4809 218.51C62.3809 220.04 61.0709 221.15 59.5409 221.84C58.0109 222.53 56.4909 222.77 54.9709 222.58V222.57ZM62.5509 210.55C62.6709 208.91 62.1109 207.65 60.8809 206.77C59.6509 205.89 58.2709 205.76 56.7409 206.4C55.2209 207.04 53.7109 208.39 52.2409 210.45C50.7509 212.52 49.9509 214.38 49.8409 216.03C49.7209 217.68 50.2809 218.95 51.5109 219.83C52.7409 220.71 54.1209 220.83 55.6409 220.19C57.1609 219.54 58.6609 218.19 60.1509 216.11C61.6409 214.04 62.4409 212.18 62.5609 210.54L62.5509 210.55Z" fill="black"/>
<path d="M41.25 188.08C41.41 187.93 41.57 187.94 41.74 188.12L46.29 192.8C46.46 192.98 46.47 193.14 46.32 193.3C46.19 193.43 45.99 193.46 45.74 193.38L44.44 193.08L42.39 196.99L45.94 200.65L50 198.8L49.39 197.13C49.29 196.9 49.31 196.72 49.47 196.57C49.64 196.41 49.81 196.42 49.98 196.59L53.52 200.23C53.69 200.41 53.7 200.58 53.52 200.74C53.36 200.89 53.18 200.91 52.95 200.8L51.09 200.07L36.84 206.36C36.39 206.57 35.95 206.74 35.51 206.89C34.98 207.06 34.58 207.01 34.31 206.73C34.04 206.46 34 206.05 34.19 205.53C34.42 204.93 34.61 204.49 34.74 204.19L41.45 190.14L41.17 188.67C41.1 188.41 41.13 188.21 41.27 188.09L41.25 188.08ZM44.68 201.23L41.74 198.2L38.74 203.94L44.68 201.23Z" fill="black"/>
<path d="M24.2209 168.14C24.2209 167.93 24.4109 167.8 24.8009 167.75C25.9109 167.64 27.1009 167.96 28.3909 168.72C29.6809 169.48 30.7109 170.54 31.4709 171.88C32.7009 174.04 33.0209 176.32 32.4309 178.71C31.8409 181.1 30.3509 182.99 27.9609 184.35C26.6009 185.13 25.2609 185.6 23.9409 185.78C22.6209 185.96 21.4209 185.86 20.3409 185.47C19.2609 185.09 18.2709 184.51 17.3809 183.75C16.4909 182.99 15.7309 182.04 15.0909 180.93C14.3409 179.61 14.0109 178.37 14.0909 177.21C13.9209 177.02 13.6409 176.65 13.2309 176.11C12.9309 175.72 12.9309 175.41 13.2309 175.16L16.3409 172.58C16.7409 172.24 17.0309 172.15 17.2009 172.32C17.3809 172.5 17.3609 172.77 17.1309 173.11C16.7609 173.63 16.4309 174.14 16.1609 174.64C15.7009 175.46 15.4509 176.34 15.3909 177.28C15.3309 178.22 15.5409 179.11 16.0109 179.93C16.8509 181.41 18.1609 182.24 19.9209 182.42C21.6809 182.6 23.5709 182.13 25.5609 180.99C27.5409 179.86 28.8209 178.46 29.3809 176.78C29.9409 175.11 29.8109 173.54 28.9709 172.08C28.0809 170.52 26.7009 169.36 24.8409 168.62C24.3909 168.44 24.1709 168.27 24.1909 168.13L24.2209 168.14Z" fill="black"/>
<path d="M20.7905 148.06C20.9905 147.99 21.1405 148.07 21.2205 148.31L23.3705 154.47C23.4505 154.71 23.3905 154.86 23.1905 154.93C23.0205 154.99 22.8305 154.93 22.6305 154.76L21.5705 153.94L18.0605 156.62L19.7405 161.43L24.2005 161.46L24.3505 159.69C24.3505 159.44 24.4605 159.28 24.6605 159.21C24.8805 159.13 25.0305 159.21 25.1105 159.45L26.7905 164.24C26.8705 164.48 26.8005 164.63 26.5805 164.71C26.3805 164.78 26.2005 164.72 26.0405 164.53L24.6605 163.08L9.09055 162.78C8.59055 162.78 8.12055 162.75 7.66055 162.7C7.11055 162.63 6.76055 162.41 6.64055 162.05C6.51055 161.69 6.64055 161.31 7.03055 160.91C7.49055 160.47 7.85055 160.14 8.09055 159.93L20.0905 150.01L20.4605 148.56C20.5105 148.3 20.6205 148.13 20.7905 148.07V148.06ZM18.3705 161.43L16.9805 157.44L11.8405 161.38L18.3705 161.42V161.43Z" fill="black"/>
<path d="M16.9493 126.01C17.0193 125.77 17.1493 125.63 17.3493 125.6C17.5793 125.57 17.7093 125.68 17.7493 125.93L18.5493 131.93C18.5793 132.18 18.4793 132.32 18.2493 132.35C18.0493 132.38 17.8893 132.28 17.7593 132.06L17.0693 131.07L3.93933 132.82L15.6093 135.43C16.8193 135.69 17.6693 135.9 18.1593 136.05C18.8093 136.25 19.1493 136.51 19.1993 136.82C19.2393 137.15 18.9793 137.5 18.4093 137.86C17.9793 138.14 17.2093 138.56 16.1093 139.13L5.52933 144.7L18.4393 142.98L18.9793 141.17C19.0293 140.93 19.1693 140.79 19.3793 140.76C19.6093 140.73 19.7393 140.84 19.7793 141.09L20.4193 145.9C20.4493 146.15 20.3493 146.29 20.1193 146.32C19.9093 146.35 19.7393 146.25 19.6293 146.03L18.6293 144.42L3.78933 146.4L3.40933 147.69C3.35933 147.93 3.21933 148.07 3.00933 148.1C2.77933 148.13 2.64933 148.02 2.60933 147.77L1.85933 142.14L13.0093 136.29L0.709333 133.51L-0.000667068 128.29C-0.0306671 128.04 0.0693329 127.9 0.299333 127.87C0.499333 127.84 0.659333 127.94 0.789333 128.16L1.47933 129.15L16.5493 127.14L16.9493 126V126.01Z" fill="black"/>
<path d="M0.939421 116.71C0.319421 115.31 0.0694211 113.82 0.199421 112.24C0.319421 110.66 0.799421 109.23 1.61942 107.94C2.44942 106.65 3.61942 105.64 5.12942 104.9C6.63942 104.17 8.33942 103.87 10.2094 104.02C12.0894 104.17 13.7194 104.72 15.0994 105.68C16.4794 106.64 17.4794 107.82 18.0994 109.22C18.7194 110.62 18.9694 112.11 18.8394 113.69C18.7194 115.27 18.2394 116.7 17.4194 117.99C16.5894 119.28 15.4194 120.29 13.9094 121.01C12.3994 121.74 10.7094 122.03 8.82942 121.88C6.94942 121.73 5.31942 121.19 3.93942 120.23C2.55942 119.28 1.55942 118.1 0.939421 116.7V116.71ZM15.1494 116.97C16.6094 116.22 17.3994 115.09 17.5194 113.58C17.6394 112.07 17.0294 110.83 15.6894 109.85C14.3494 108.88 12.4194 108.29 9.89942 108.1C7.35942 107.9 5.34942 108.18 3.87942 108.94C2.40942 109.7 1.60942 110.83 1.49942 112.34C1.38942 113.85 1.98942 115.09 3.32942 116.06C4.66942 117.02 6.60942 117.61 9.14942 117.8C11.6894 118 13.6894 117.72 15.1594 116.98L15.1494 116.97Z" fill="black"/>
<path d="M23.3506 87.11C23.5606 87.17 23.6306 87.31 23.5706 87.56L21.9106 93.87C21.8506 94.11 21.7106 94.2 21.5006 94.15C21.3206 94.1 21.2006 93.95 21.1306 93.69L20.7106 92.42L16.3006 92.68L15.0106 97.61L18.6906 100.13L19.8006 98.74C19.9406 98.54 20.1206 98.46 20.3206 98.52C20.5506 98.58 20.6306 98.73 20.5606 98.97L19.2706 103.88C19.2106 104.12 19.0606 104.21 18.8406 104.15C18.6306 104.1 18.5106 103.94 18.4906 103.7L18.1606 101.73L5.41056 92.78C5.00056 92.5 4.62056 92.21 4.27056 91.91C3.85056 91.54 3.69056 91.17 3.79056 90.8C3.89056 90.43 4.21057 90.19 4.76057 90.07C5.39057 89.96 5.87057 89.89 6.19057 89.85L21.6806 88.33L22.8006 87.33C22.9906 87.14 23.1706 87.07 23.3506 87.11ZM13.8706 96.85L14.9406 92.76L8.48056 93.16L13.8706 96.85Z" fill="black"/>
<path d="M31.6609 62.29C31.8409 62.18 32.0509 62.28 32.2909 62.59C32.9609 63.48 33.2909 64.67 33.3109 66.17C33.3309 67.67 32.9509 69.09 32.1909 70.44C30.9809 72.61 29.1909 74.05 26.8309 74.79C24.4709 75.52 22.0909 75.21 19.6909 73.87C18.3209 73.1 17.2309 72.2 16.3909 71.16C15.5509 70.12 15.0309 69.04 14.8009 67.92C14.5709 66.8 14.5609 65.66 14.7609 64.5C14.9609 63.34 15.3809 62.2 16.0009 61.08C16.7409 59.76 17.6309 58.83 18.6709 58.31C18.7509 58.07 18.9209 57.64 19.1709 57.01C19.3509 56.56 19.6209 56.39 19.9909 56.52L23.8009 57.85C24.3009 58.02 24.5209 58.22 24.4709 58.45C24.4109 58.7 24.1709 58.82 23.7609 58.8C23.1209 58.75 22.5209 58.73 21.9509 58.76C21.0209 58.79 20.1309 59.02 19.2909 59.46C18.4509 59.9 17.8009 60.53 17.3409 61.36C16.5109 62.84 16.4709 64.39 17.2209 65.99C17.9709 67.6 19.3509 68.96 21.3609 70.09C23.3509 71.21 25.2109 71.58 26.9309 71.19C28.6509 70.81 29.9309 69.89 30.7509 68.42C31.6309 66.85 31.9109 65.08 31.5809 63.1C31.5109 62.62 31.5309 62.35 31.6609 62.29Z" fill="black"/>
<path d="M47.1096 48.96C47.2796 49.1 47.2796 49.26 47.1196 49.46L42.9596 54.48C42.7996 54.67 42.6396 54.7 42.4696 54.56C42.3296 54.44 42.2796 54.25 42.3296 53.99L42.4896 52.66L38.3796 51.04L35.1296 54.97L37.4096 58.81L39.0096 58.02C39.2196 57.89 39.4096 57.9 39.5796 58.04C39.7596 58.19 39.7696 58.36 39.6096 58.55L36.3696 62.46C36.2096 62.65 36.0396 62.67 35.8596 62.53C35.6896 62.39 35.6496 62.21 35.7396 61.97L36.2696 60.04L28.4896 46.55C28.2396 46.12 28.0096 45.7 27.8196 45.28C27.5896 44.77 27.5996 44.36 27.8496 44.07C28.0996 43.77 28.4896 43.69 29.0296 43.82C29.6496 43.99 30.1096 44.12 30.4196 44.22L45.1096 49.38L46.5396 48.94C46.7896 48.85 46.9896 48.86 47.1296 48.97L47.1096 48.96ZM34.4096 53.79L37.1096 50.54L31.0796 48.17L34.4096 53.79Z" fill="black"/>
<path d="M63.9702 34.28C64.2202 34.21 64.4002 34.26 64.5202 34.41C64.6702 34.59 64.6402 34.76 64.4502 34.92L59.7302 38.71C59.5402 38.87 59.3602 38.85 59.2202 38.67C59.1002 38.51 59.0902 38.32 59.2202 38.1L59.7102 37L51.4102 26.67L55.2302 38C55.6402 39.17 55.9002 40.01 56.0202 40.5C56.1902 41.16 56.1402 41.59 55.9002 41.78C55.6402 41.99 55.2102 41.94 54.6002 41.64C54.1402 41.41 53.3802 40.97 52.3302 40.33L42.0802 34.16L50.2402 44.31L52.0702 43.83C52.3002 43.75 52.4902 43.79 52.6202 43.96C52.7702 44.14 52.7402 44.31 52.5502 44.47L48.7702 47.51C48.5802 47.67 48.4002 47.65 48.2602 47.47C48.1202 47.3 48.1202 47.11 48.2602 46.9L49.1202 45.21L39.7402 33.54L38.4402 33.88C38.2102 33.96 38.0202 33.92 37.8902 33.75C37.7402 33.57 37.7702 33.4 37.9602 33.24L42.3802 29.69L53.1602 36.2L49.1602 24.24L53.2502 20.95C53.4502 20.79 53.6202 20.81 53.7602 20.99C53.8902 21.15 53.8902 21.34 53.7602 21.56L53.2702 22.66L62.7902 34.51L63.9702 34.27V34.28Z" fill="black"/>
<path d="M63.6607 15.75C64.5407 14.5 65.6907 13.52 67.1107 12.8C68.5307 12.09 70.0007 11.76 71.5307 11.8C73.0607 11.84 74.5307 12.32 75.9407 13.24C77.3507 14.16 78.4807 15.45 79.3207 17.14C80.1607 18.83 80.5307 20.5 80.4207 22.18C80.3107 23.86 79.8207 25.32 78.9307 26.58C78.0407 27.84 76.9007 28.82 75.4807 29.53C74.0607 30.24 72.5907 30.57 71.0607 30.53C69.5307 30.49 68.0607 30.01 66.6607 29.09C65.2607 28.17 64.1307 26.87 63.2907 25.19C62.4507 23.51 62.0707 21.83 62.1807 20.15C62.2807 18.48 62.7707 17.01 63.6507 15.76L63.6607 15.75ZM70.7707 28.06C72.1607 28.93 73.5407 29.02 74.9007 28.34C76.2607 27.66 77.0007 26.5 77.1507 24.85C77.2907 23.2 76.8007 21.25 75.6607 18.98C74.5207 16.7 73.2407 15.13 71.8307 14.26C70.4207 13.39 69.0407 13.3 67.6907 13.97C66.3307 14.65 65.5907 15.81 65.4507 17.46C65.3107 19.1 65.8207 21.06 66.9607 23.34C68.1007 25.62 69.3707 27.19 70.7707 28.06Z" fill="black"/>
<path d="M100.581 19.69C100.641 19.9 100.551 20.04 100.311 20.11L94.0507 21.95C93.8107 22.02 93.6607 21.95 93.6007 21.74C93.5507 21.56 93.6207 21.38 93.8007 21.19L94.6807 20.18L92.1807 16.54L87.2907 17.98L87.0307 22.43L88.7907 22.67C89.0407 22.68 89.1907 22.8 89.2507 23C89.3207 23.22 89.2307 23.37 88.9907 23.44L84.1207 24.87C83.8807 24.94 83.7307 24.87 83.6607 24.64C83.6007 24.43 83.6607 24.26 83.8707 24.11L85.3907 22.8L86.4907 7.25996C86.5207 6.76996 86.5707 6.28996 86.6507 5.82996C86.7507 5.27996 86.9807 4.94996 87.3507 4.83996C87.7207 4.72996 88.0907 4.87996 88.4707 5.28996C88.8907 5.76996 89.2007 6.13996 89.3907 6.39996L98.6807 18.89L100.111 19.33C100.371 19.39 100.531 19.51 100.581 19.69ZM87.3507 16.58L91.4007 15.39L87.7307 10.06L87.3507 16.58Z" fill="black"/>
</g>
<defs>
<clipPath id="clip0_32_1878">
<rect width="243.54" height="243.59" fill="white"/>
</clipPath>
</defs>
</svg>
