<svg width="50" height="50" viewBox="0 0 50 50" fill="none" xmlns="http://www.w3.org/2000/svg">
<path d="M33.125 29.95C33.3083 30.05 33.325 30.2833 33.175 30.65C32.725 31.6667 31.85 32.55 30.55 33.3C29.25 34.0333 27.825 34.4 26.275 34.4C23.7917 34.4 21.65 33.55 19.85 31.85C18.0667 30.15 17.175 27.925 17.175 25.175C17.175 23.6083 17.425 22.2083 17.925 20.975C18.425 19.7417 19.1083 18.75 19.975 18C20.8417 17.25 21.825 16.6833 22.925 16.3C24.0417 15.9 25.2417 15.7 26.525 15.7C28.0417 15.7 29.2833 16.025 30.25 16.675C30.5 16.625 30.9583 16.5583 31.625 16.475C32.1083 16.4083 32.3833 16.5667 32.45 16.95L33.15 20.925C33.25 21.4417 33.1833 21.7333 32.95 21.8C32.7 21.8667 32.4833 21.7167 32.3 21.35C32.0333 20.7667 31.75 20.2333 31.45 19.75C30.9667 18.95 30.325 18.2917 29.525 17.775C28.7417 17.2583 27.875 17 26.925 17C25.225 17 23.8583 17.725 22.825 19.175C21.7917 20.6083 21.275 22.475 21.275 24.775C21.275 27.0583 21.8583 28.8583 23.025 30.175C24.2083 31.4917 25.6417 32.15 27.325 32.15C29.125 32.15 30.8083 31.525 32.375 30.275C32.7583 29.975 33.0083 29.8667 33.125 29.95Z" fill="#20231F"/>
<circle cx="25.5" cy="25.5" r="17" stroke="#20231F"/>
</svg>
